<svg version="1.1" id="Layer_1" xmlns="http://www.w3.org/2000/svg" xmlns:xlink="http://www.w3.org/1999/xlink" x="0px" y="0px"
	 width="100%" viewBox="0 0 626 626" enable-background="new 0 0 626 626" xml:space="preserve">
<path fill="#FEFFFE" opacity="1.000000" stroke="none" 
	d="
M414.000000,627.000000 
	C276.000031,627.000000 138.500046,627.000000 1.000055,627.000000 
	C1.000037,418.333405 1.000037,209.666794 1.000018,1.000139 
	C209.666565,1.000093 418.333130,1.000093 626.999756,1.000046 
	C626.999878,209.666519 626.999878,418.333038 626.999939,626.999756 
	C556.166687,627.000000 485.333344,627.000000 414.000000,627.000000 
M185.748108,494.757507 
	C185.845139,495.507202 185.942169,496.256897 185.958435,497.794495 
	C190.274948,517.514343 206.178360,522.744263 225.320740,510.506561 
	C225.578690,512.183411 225.818848,513.744629 226.055222,515.281372 
	C230.894119,515.281372 235.482559,515.281372 240.290558,515.281372 
	C240.290558,495.811462 240.290558,476.572388 240.290558,457.000000 
	C239.230835,457.000000 238.115311,457.000000 236.132187,456.782654 
	C233.754623,456.856323 231.377060,456.930023 228.180084,456.842743 
	C225.018646,456.362274 225.722595,458.662964 225.718872,460.348389 
	C225.697479,469.994598 225.931213,479.647064 225.656891,489.285400 
	C225.400696,498.286774 220.172623,503.440308 212.196579,503.252350 
	C204.419418,503.069092 200.716217,498.562225 200.669388,489.069153 
	C200.622620,479.589417 200.719757,470.108398 200.587051,460.630280 
	C200.569962,459.409851 199.552414,458.203461 198.111816,456.772064 
	C195.074432,456.848358 192.037064,456.924622 188.180099,456.849701 
	C187.367767,457.678680 185.854980,458.502472 185.848740,459.337494 
	C185.762573,470.898407 185.883194,482.460876 185.748108,494.757507 
M306.513092,103.494019 
	C305.022156,121.463379 301.926086,139.096573 294.930389,155.827621 
	C275.472046,202.364655 242.189987,234.400635 194.449997,251.113220 
	C188.247284,253.284607 181.874374,254.969803 175.641922,256.861511 
	C184.975800,307.054779 221.893082,348.945801 271.497559,364.457855 
	C304.776825,374.864716 337.798737,373.204315 370.518188,359.098480 
	C369.368195,357.822906 368.845764,357.188934 368.267853,356.610352 
	C347.634735,335.951813 326.955139,315.339508 306.372986,294.630310 
	C292.156097,280.325623 291.991669,259.087250 305.990356,244.586349 
	C313.365814,236.946289 320.872314,229.424194 328.523376,222.060516 
	C343.524567,207.622772 364.445129,207.895950 379.221710,222.603043 
	C399.725555,243.010498 420.193237,263.454315 440.695190,283.863708 
	C441.431244,284.596436 442.366547,285.129028 443.862366,286.240326 
	C445.967438,279.776978 448.006622,274.021606 449.719360,268.170685 
	C457.713593,240.861084 457.327667,213.419174 448.442871,186.600784 
	C435.656586,148.005768 410.681244,119.519806 373.771149,101.953934 
	C358.040161,94.467438 341.466003,89.960579 323.056580,88.997459 
	C317.693512,88.997459 312.330444,88.997459 306.855591,88.997459 
	C306.855591,93.916565 306.855591,98.329071 306.513092,103.494019 
M327.330414,296.166870 
	C349.840759,318.653625 372.342194,341.149261 394.865570,363.622986 
	C404.799133,373.534607 417.566010,373.546051 427.411896,363.726318 
	C433.848785,357.306580 440.323212,350.924408 446.752472,344.497040 
	C458.259277,332.993500 458.237305,320.915375 446.656372,309.371460 
	C420.946869,283.744080 395.064178,258.287903 369.575378,232.443100 
	C360.691010,223.434647 346.765686,223.051208 337.657257,232.228821 
	C330.501251,239.439117 323.236664,246.543549 316.168121,253.838211 
	C307.358704,262.929382 307.479004,275.969757 316.336365,285.075592 
	C319.801453,288.637878 323.376160,292.093536 327.330414,296.166870 
M172.490952,205.065979 
	C171.223770,217.516388 171.555405,229.877594 174.151230,242.582733 
	C211.745651,234.243057 241.798813,215.024994 264.298401,184.525299 
	C284.868195,156.641586 294.192383,125.089844 293.117706,90.382599 
	C233.985413,92.423752 179.224045,139.834457 172.490952,205.065979 
M94.279060,452.841949 
	C85.253716,470.326508 87.355095,489.376251 99.861809,503.450989 
	C112.390602,517.550537 130.232971,520.548096 152.774323,512.140503 
	C155.495636,515.054810 158.329620,518.089722 161.292038,521.262207 
	C165.205643,517.786926 168.873138,514.530151 172.729218,511.105957 
	C169.801071,507.985138 167.207687,505.221069 164.491348,502.325989 
	C165.088211,501.429504 165.598129,500.593170 166.175720,499.806610 
	C174.909286,487.913940 176.683136,474.663727 172.314529,460.963043 
	C167.121170,444.675812 155.483368,434.599915 138.605835,432.090271 
	C119.972549,429.319580 104.976257,436.018677 94.279060,452.841949 
M303.561951,516.164307 
	C318.246216,520.124390 333.396454,512.711304 338.097656,501.795990 
	C333.999176,499.453186 329.862488,497.088501 325.763306,494.745300 
	C318.657379,503.312805 308.285309,504.804138 301.200195,498.453064 
	C294.650940,492.582306 293.988617,481.487823 299.879822,475.041443 
	C305.945984,468.403687 317.366302,466.986145 325.915100,477.440094 
	C329.980103,475.029999 334.070068,472.605072 338.152100,470.184875 
	C330.723297,457.484192 316.308197,452.090271 302.278259,456.454956 
	C289.545227,460.416168 281.133698,471.703186 280.868500,485.183563 
	C280.576111,500.045380 288.210022,510.828369 303.561951,516.164307 
M394.037598,437.374481 
	C390.161224,436.002502 386.334991,433.648102 382.398834,433.447235 
	C371.650665,432.898712 360.856110,433.258484 350.026550,433.258484 
	C350.026550,460.684265 350.026550,487.961609 350.026550,515.255005 
	C352.672791,515.255005 355.087189,515.255005 357.946655,515.255005 
	C357.946655,505.068604 357.946655,495.171783 357.946655,484.984161 
	C362.367188,484.984161 366.347260,485.128693 370.312714,484.949615 
	C375.949341,484.695068 381.818512,485.085754 387.151855,483.616455 
	C396.459686,481.052246 402.394531,474.503296 404.367676,464.816559 
	C406.600189,453.856781 403.453430,444.802551 394.037598,437.374481 
M444.125366,516.833923 
	C452.248749,515.992371 458.564697,511.895752 464.268494,504.347839 
	C464.268494,508.940491 464.268494,511.998352 464.268494,515.207031 
	C467.097778,515.207031 469.474792,515.207031 471.765686,515.207031 
	C471.765686,495.606384 471.765686,476.350250 471.765686,457.187592 
	C469.166534,457.187592 466.793610,457.187592 464.097412,457.187592 
	C464.097412,460.645172 464.097412,463.699615 464.097412,467.783875 
	C455.571320,456.209503 444.693451,453.275940 432.243256,456.416656 
	C417.356537,460.172028 407.824463,475.264984 410.141418,490.411407 
	C412.712646,507.220123 425.731598,517.662109 444.125366,516.833923 
M531.557922,456.858246 
	C530.277222,459.702972 528.885559,462.503662 527.734924,465.400024 
	C522.495239,478.589081 517.323364,491.805054 511.817078,505.799164 
	C505.021301,490.764496 498.606628,476.593750 492.211060,462.414368 
	C489.240295,455.828003 489.202057,455.793823 481.887970,457.493866 
	C490.066040,475.828522 498.265686,494.133820 506.354156,512.488037 
	C507.025146,514.010620 507.610657,516.103394 507.101501,517.524902 
	C504.312164,525.312744 500.552032,532.290100 490.502808,532.210205 
	C490.502808,534.533752 490.502808,536.626221 490.502808,538.696594 
	C499.435181,539.845398 508.305298,534.534241 512.585022,524.133728 
	C521.706970,501.965668 530.242432,479.556274 539.189697,456.809875 
	C536.584229,456.809875 534.457153,456.809875 531.557922,456.858246 
M259.819946,456.753662 
	C258.218994,456.753662 256.618073,456.753662 255.073181,456.753662 
	C255.073181,476.667084 255.073181,496.036194 255.073181,515.253601 
	C260.156677,515.253601 264.921295,515.253601 269.755981,515.253601 
	C269.755981,495.684875 269.755981,476.422485 269.755981,456.753784 
	C266.664917,456.753784 263.692963,456.753784 259.819946,456.753662 
M253.674713,443.534515 
	C257.103455,449.153778 261.475769,450.836823 266.381409,448.425659 
	C270.645111,446.330048 272.545837,441.713531 271.034698,437.123779 
	C269.653198,432.927643 264.648712,430.050781 260.355988,430.985077 
	C255.196274,432.108002 252.524063,436.626129 253.674713,443.534515 
z"/>
<path fill="#3AB54A" opacity="1.000000" stroke="none" 
	d="
M323.980164,89.149292 
	C341.466003,89.960579 358.040161,94.467438 373.771149,101.953934 
	C410.681244,119.519806 435.656586,148.005768 448.442871,186.600784 
	C457.327667,213.419174 457.713593,240.861084 449.719360,268.170685 
	C448.006622,274.021606 445.967438,279.776978 443.862366,286.240326 
	C442.366547,285.129028 441.431244,284.596436 440.695190,283.863708 
	C420.193237,263.454315 399.725555,243.010498 379.221710,222.603043 
	C364.445129,207.895950 343.524567,207.622772 328.523376,222.060516 
	C320.872314,229.424194 313.365814,236.946289 305.990356,244.586349 
	C291.991669,259.087250 292.156097,280.325623 306.372986,294.630310 
	C326.955139,315.339508 347.634735,335.951813 368.267853,356.610352 
	C368.845764,357.188934 369.368195,357.822906 370.518188,359.098480 
	C337.798737,373.204315 304.776825,374.864716 271.497559,364.457855 
	C221.893082,348.945801 184.975800,307.054779 175.641922,256.861511 
	C181.874374,254.969803 188.247284,253.284607 194.449997,251.113220 
	C242.189987,234.400635 275.472046,202.364655 294.930389,155.827621 
	C301.926086,139.096573 305.022156,121.463379 306.767242,103.581619 
	C307.021393,106.559631 307.021393,109.450043 307.021393,112.340462 
	C307.680756,112.320511 308.340088,112.300560 308.999451,112.280609 
	C308.999451,107.343719 308.994049,102.406830 309.000763,97.469948 
	C309.009552,91.009254 309.021423,91.191605 315.485352,90.918396 
	C318.336761,90.797874 321.149750,89.766914 323.980164,89.149292 
z"/>
<path fill="#3AB54A" opacity="1.000000" stroke="none" 
	d="
M327.115662,295.882324 
	C323.376160,292.093536 319.801453,288.637878 316.336365,285.075592 
	C307.479004,275.969757 307.358704,262.929382 316.168121,253.838211 
	C323.236664,246.543549 330.501251,239.439117 337.657257,232.228821 
	C346.765686,223.051208 360.691010,223.434647 369.575378,232.443100 
	C395.064178,258.287903 420.946869,283.744080 446.656372,309.371460 
	C458.237305,320.915375 458.259277,332.993500 446.752472,344.497040 
	C440.323212,350.924408 433.848785,357.306580 427.411896,363.726318 
	C417.566010,373.546051 404.799133,373.534607 394.865570,363.622986 
	C372.342194,341.149261 349.840759,318.653625 327.115662,295.882324 
M347.150513,252.350220 
	C343.621796,248.577850 339.721466,247.798065 336.461884,250.213257 
	C332.939240,252.823380 331.903412,257.395660 334.096405,260.654785 
	C336.441101,264.139374 340.609528,265.430542 344.004791,263.723907 
	C348.251556,261.589264 349.520569,257.785156 347.150513,252.350220 
z"/>
<path fill="#1176BD" opacity="1.000000" stroke="none" 
	d="
M172.556824,204.614639 
	C179.224045,139.834457 233.985413,92.423752 293.117706,90.382599 
	C294.192383,125.089844 284.868195,156.641586 264.298401,184.525299 
	C241.798813,215.024994 211.745651,234.243057 174.151230,242.582733 
	C171.555405,229.877594 171.223770,217.516388 172.556824,204.614639 
z"/>
<path fill="#060606" opacity="1.000000" stroke="none" 
	d="
M94.497574,452.547119 
	C104.976257,436.018677 119.972549,429.319580 138.605835,432.090271 
	C155.483368,434.599915 167.121170,444.675812 172.314529,460.963043 
	C176.683136,474.663727 174.909286,487.913940 166.175720,499.806610 
	C165.598129,500.593170 165.088211,501.429504 164.491348,502.325989 
	C167.207687,505.221069 169.801071,507.985138 172.729218,511.105957 
	C168.873138,514.530151 165.205643,517.786926 161.292038,521.262207 
	C158.329620,518.089722 155.495636,515.054810 152.774323,512.140503 
	C130.232971,520.548096 112.390602,517.550537 99.861809,503.450989 
	C87.355095,489.376251 85.253716,470.326508 94.497574,452.547119 
M130.883530,482.458191 
	C133.481918,480.220642 136.080307,477.983124 138.838348,475.608124 
	C143.947433,480.543091 148.788422,485.219055 153.606476,489.872894 
	C161.348022,478.203278 159.558716,462.412292 149.437454,453.653015 
	C139.036102,444.651367 123.590202,444.742157 113.367958,453.865021 
	C103.540016,462.636047 101.818016,479.321899 109.601120,490.365845 
	C116.544334,500.218018 130.777084,504.489594 141.930527,498.616333 
	C136.716858,494.207794 131.940750,490.169281 127.303848,486.248444 
	C128.767654,484.663208 129.557129,483.808258 130.883530,482.458191 
z"/>
<path fill="#070707" opacity="1.000000" stroke="none" 
	d="
M303.147705,516.116211 
	C288.210022,510.828369 280.576111,500.045380 280.868500,485.183563 
	C281.133698,471.703186 289.545227,460.416168 302.278259,456.454956 
	C316.308197,452.090271 330.723297,457.484192 338.152100,470.184875 
	C334.070068,472.605072 329.980103,475.029999 325.915100,477.440094 
	C317.366302,466.986145 305.945984,468.403687 299.879822,475.041443 
	C293.988617,481.487823 294.650940,492.582306 301.200195,498.453064 
	C308.285309,504.804138 318.657379,503.312805 325.763306,494.745300 
	C329.862488,497.088501 333.999176,499.453186 338.097656,501.795990 
	C333.396454,512.711304 318.246216,520.124390 303.147705,516.116211 
z"/>
<path fill="#050505" opacity="1.000000" stroke="none" 
	d="
M198.998322,456.990570 
	C199.552414,458.203461 200.569962,459.409851 200.587051,460.630280 
	C200.719757,470.108398 200.622620,479.589417 200.669388,489.069153 
	C200.716217,498.562225 204.419418,503.069092 212.196579,503.252350 
	C220.172623,503.440308 225.400696,498.286774 225.656891,489.285400 
	C225.931213,479.647064 225.697479,469.994598 225.718872,460.348389 
	C225.722595,458.662964 225.018646,456.362274 228.679962,457.314880 
	C231.935074,458.431702 234.690292,459.076355 237.746216,459.791382 
	C237.830948,461.153809 237.998688,462.613831 238.000641,464.074097 
	C238.020187,478.726532 238.074585,493.379639 237.926025,508.030579 
	C237.909348,509.675110 236.705338,512.703796 236.043137,512.706238 
	C233.025360,512.717346 228.987610,514.927612 227.410858,510.062378 
	C227.402710,514.379822 230.988739,515.362000 238.985168,513.010681 
	C238.985168,495.671753 239.025955,478.211761 238.899673,460.752960 
	C238.890594,459.497467 237.661575,458.250793 236.999786,457.000000 
	C238.115311,457.000000 239.230835,457.000000 240.290558,457.000000 
	C240.290558,476.572388 240.290558,495.811462 240.290558,515.281372 
	C235.482559,515.281372 230.894119,515.281372 226.055222,515.281372 
	C225.818848,513.744629 225.578690,512.183411 225.320740,510.506561 
	C206.178360,522.744263 190.274948,517.514343 186.390259,497.295776 
	C187.209305,494.966248 187.912903,493.138641 187.931488,491.304108 
	C188.038574,480.724213 187.983704,470.142731 187.983704,459.014740 
	C191.768631,459.014740 194.880081,459.014740 197.994415,459.481934 
	C197.997299,470.567200 197.997299,481.185303 197.997299,491.803375 
	C198.325272,491.800293 198.653259,491.797211 198.981232,491.794098 
	C198.981232,480.854553 198.981232,469.914978 198.977081,458.644348 
	C198.981400,457.872375 198.989853,457.431488 198.998322,456.990570 
M227.002243,473.508789 
	C227.002243,479.602081 227.002243,485.695374 227.002243,491.788696 
	C227.225311,491.780029 227.448380,491.771393 227.671448,491.762756 
	C227.671448,481.236694 227.671448,470.710632 227.671448,460.184540 
	C227.448380,460.183594 227.225311,460.182648 227.002243,460.181671 
	C227.002243,464.292755 227.002243,468.403809 227.002243,473.508789 
z"/>
<path fill="#0F0F0F" opacity="1.000000" stroke="none" 
	d="
M394.313324,437.609009 
	C403.453430,444.802551 406.600189,453.856781 404.367676,464.816559 
	C402.394531,474.503296 396.459686,481.052246 387.151855,483.616455 
	C381.818512,485.085754 375.949341,484.695068 370.312714,484.949615 
	C366.347260,485.128693 362.367188,484.984161 357.946655,484.984161 
	C357.946655,495.171783 357.946655,505.068604 357.946655,515.255005 
	C355.087189,515.255005 352.672791,515.255005 350.026550,515.255005 
	C350.026550,487.961609 350.026550,460.684265 350.026550,433.258484 
	C360.856110,433.258484 371.650665,432.898712 382.398834,433.447235 
	C386.334991,433.648102 390.161224,436.002502 394.313324,437.609009 
M394.024872,448.699066 
	C390.481415,446.182251 387.161377,442.002747 383.348572,441.490387 
	C375.091339,440.380859 366.581818,441.148621 357.760010,441.148621 
	C357.760010,447.152954 357.760010,453.092438 357.760010,459.031921 
	C357.760010,464.964478 357.760010,470.897064 357.760010,477.266022 
	C364.328705,477.266022 370.454895,476.921997 376.530487,477.330536 
	C394.762299,478.556458 401.138672,460.638763 394.024872,448.699066 
M351.989014,473.500000 
	C351.989014,461.435028 351.989014,449.370056 351.989014,437.305054 
	C351.756927,437.309967 351.524872,437.314880 351.292786,437.319794 
	C351.292786,462.174866 351.292786,487.029907 351.292786,511.884949 
	C351.524872,511.885742 351.756927,511.886566 351.989014,511.887360 
	C351.989014,499.424896 351.989014,486.962463 351.989014,473.500000 
M353.825989,513.251526 
	C353.881104,513.414551 353.936218,513.577576 353.991364,513.740601 
	C354.045044,513.576599 354.098755,513.412598 353.825989,513.251526 
z"/>
<path fill="#0F0F0F" opacity="1.000000" stroke="none" 
	d="
M443.676514,516.891235 
	C425.731598,517.662109 412.712646,507.220123 410.141418,490.411407 
	C407.824463,475.264984 417.356537,460.172028 432.243256,456.416656 
	C444.693451,453.275940 455.571320,456.209503 464.097412,467.783875 
	C464.097412,463.699615 464.097412,460.645172 464.097412,457.187592 
	C466.793610,457.187592 469.166534,457.187592 471.765686,457.187592 
	C471.765686,476.350250 471.765686,495.606384 471.765686,515.207031 
	C469.474792,515.207031 467.097778,515.207031 464.268494,515.207031 
	C464.268494,511.998352 464.268494,508.940491 464.268494,504.347839 
	C458.564697,511.895752 452.248749,515.992371 443.676514,516.891235 
M417.645874,483.750885 
	C416.921631,497.596893 425.842072,508.465271 438.888458,509.632172 
	C451.360962,510.747681 462.729034,501.539062 464.032440,489.264374 
	C465.413574,476.257690 457.108276,464.752075 445.109863,463.050110 
	C431.152863,461.070312 420.159332,469.038818 417.645874,483.750885 
z"/>
<path fill="#0E0E0E" opacity="1.000000" stroke="none" 
	d="
M531.943970,456.834045 
	C534.457153,456.809875 536.584229,456.809875 539.189697,456.809875 
	C530.242432,479.556274 521.706970,501.965668 512.585022,524.133728 
	C508.305298,534.534241 499.435181,539.845398 490.502808,538.696594 
	C490.502808,536.626221 490.502808,534.533752 490.502808,532.210205 
	C500.552032,532.290100 504.312164,525.312744 507.101501,517.524902 
	C507.610657,516.103394 507.025146,514.010620 506.354156,512.488037 
	C498.265686,494.133820 490.066040,475.828522 481.887970,457.493866 
	C489.202057,455.793823 489.240295,455.828003 492.211060,462.414368 
	C498.606628,476.593750 505.021301,490.764496 511.817078,505.799164 
	C517.323364,491.805054 522.495239,478.589081 527.734924,465.400024 
	C528.885559,462.503662 530.277222,459.702972 531.943970,456.834045 
z"/>
<path fill="#1C1C1C" opacity="1.000000" stroke="none" 
	d="
M260.270477,456.753723 
	C263.692963,456.753784 266.664917,456.753784 269.755981,456.753784 
	C269.755981,476.422485 269.755981,495.684875 269.755981,515.253601 
	C264.921295,515.253601 260.156677,515.253601 255.073181,515.253601 
	C255.073181,496.036194 255.073181,476.667084 255.073181,456.753662 
	C256.618073,456.753662 258.218994,456.753662 260.270477,456.753723 
M256.451263,459.563080 
	C256.308746,460.202911 256.042816,460.842499 256.041809,461.482574 
	C256.016052,477.442627 255.995193,493.402832 256.061218,509.362640 
	C256.066254,510.575378 256.722626,511.785461 257.982910,513.003113 
	C258.811249,513.003723 259.639587,513.005371 260.467926,513.004700 
	C267.012177,512.999512 267.016479,512.999390 267.018005,506.676575 
	C267.021088,494.085785 267.018982,481.494995 267.018890,468.904205 
	C267.018829,459.013794 267.018738,459.013794 256.451263,459.563080 
z"/>
<path fill="#0A0A0A" opacity="1.000000" stroke="none" 
	d="
M253.522888,443.164734 
	C252.524063,436.626129 255.196274,432.108002 260.355988,430.985077 
	C264.648712,430.050781 269.653198,432.927643 271.034698,437.123779 
	C272.545837,441.713531 270.645111,446.330048 266.381409,448.425659 
	C261.475769,450.836823 257.103455,449.153778 253.522888,443.164734 
z"/>
<path fill="#1C1C1C" opacity="1.000000" stroke="none" 
	d="
M236.565979,456.891327 
	C237.661575,458.250793 238.890594,459.497467 238.899673,460.752960 
	C239.025955,478.211761 238.985168,495.671753 238.985168,513.010681 
	C230.988739,515.362000 227.402710,514.379822 227.410858,510.062378 
	C228.987610,514.927612 233.025360,512.717346 236.043137,512.706238 
	C236.705338,512.703796 237.909348,509.675110 237.926025,508.030579 
	C238.074585,493.379639 238.020187,478.726532 238.000641,464.074097 
	C237.998688,462.613831 237.830948,461.153809 237.746216,459.791382 
	C234.690292,459.076355 231.935074,458.431702 229.089661,457.395355 
	C231.377060,456.930023 233.754623,456.856323 236.565979,456.891327 
z"/>
<path fill="#1EBA35" opacity="1.000000" stroke="none" 
	d="
M323.518372,89.073380 
	C321.149750,89.766914 318.336761,90.797874 315.485352,90.918396 
	C309.021423,91.191605 309.009552,91.009254 309.000763,97.469948 
	C308.994049,102.406830 308.999451,107.343719 308.999451,112.280609 
	C308.340088,112.300560 307.680756,112.320511 307.021393,112.340462 
	C307.021393,109.450043 307.021393,106.559631 306.938477,103.205391 
	C306.855591,98.329071 306.855591,93.916565 306.855591,88.997459 
	C312.330444,88.997459 317.693512,88.997459 323.518372,89.073380 
z"/>
<path fill="#050505" opacity="1.000000" stroke="none" 
	d="
M185.953217,494.022949 
	C185.883194,482.460876 185.762573,470.898407 185.848740,459.337494 
	C185.854980,458.502472 187.367767,457.678680 188.362274,457.243835 
	C188.033661,459.263702 187.108322,460.882538 187.081177,462.516357 
	C186.935013,471.310760 187.067383,480.109558 186.964066,488.905212 
	C186.943985,490.614838 186.306122,492.317230 185.953217,494.022949 
z"/>
<path fill="#242424" opacity="1.000000" stroke="none" 
	d="
M185.850662,494.390228 
	C186.306122,492.317230 186.943985,490.614838 186.964066,488.905212 
	C187.067383,480.109558 186.935013,471.310760 187.081177,462.516357 
	C187.108322,460.882538 188.033661,459.263702 188.772064,457.319427 
	C192.037064,456.924622 195.074432,456.848358 198.555069,456.881317 
	C198.989853,457.431488 198.981400,457.872375 198.729935,458.658905 
	C198.486938,459.004517 197.991516,459.014740 197.991516,459.014740 
	C194.880081,459.014740 191.768631,459.014740 187.983704,459.014740 
	C187.983704,470.142731 188.038574,480.724213 187.931488,491.304108 
	C187.912903,493.138641 187.209305,494.966248 186.430649,496.901825 
	C185.942169,496.256897 185.845139,495.507202 185.850662,494.390228 
z"/>
<path fill="#F5F8F5" opacity="1.000000" stroke="none" 
	d="
M347.369568,252.665405 
	C349.520569,257.785156 348.251556,261.589264 344.004791,263.723907 
	C340.609528,265.430542 336.441101,264.139374 334.096405,260.654785 
	C331.903412,257.395660 332.939240,252.823380 336.461884,250.213257 
	C339.721466,247.798065 343.621796,248.577850 347.369568,252.665405 
z"/>
<path fill="#FBFBFB" opacity="1.000000" stroke="none" 
	d="
M130.615067,482.705750 
	C129.557129,483.808258 128.767654,484.663208 127.303848,486.248444 
	C131.940750,490.169281 136.716858,494.207794 141.930527,498.616333 
	C130.777084,504.489594 116.544334,500.218018 109.601120,490.365845 
	C101.818016,479.321899 103.540016,462.636047 113.367958,453.865021 
	C123.590202,444.742157 139.036102,444.651367 149.437454,453.653015 
	C159.558716,462.412292 161.348022,478.203278 153.606476,489.872894 
	C148.788422,485.219055 143.947433,480.543091 138.838348,475.608124 
	C136.080307,477.983124 133.481918,480.220642 130.615067,482.705750 
z"/>
<path fill="#1C1C1C" opacity="1.000000" stroke="none" 
	d="
M227.002243,473.011841 
	C227.002243,468.403809 227.002243,464.292755 227.002243,460.181671 
	C227.225311,460.182648 227.448380,460.183594 227.671448,460.184540 
	C227.671448,470.710632 227.671448,481.236694 227.671448,491.762756 
	C227.448380,491.771393 227.225311,491.780029 227.002243,491.788696 
	C227.002243,485.695374 227.002243,479.602081 227.002243,473.011841 
z"/>
<path fill="#0F0F0F" opacity="1.000000" stroke="none" 
	d="
M197.994415,459.481934 
	C197.991516,459.014740 198.486938,459.004517 198.734085,458.989960 
	C198.981232,469.914978 198.981232,480.854553 198.981232,491.794098 
	C198.653259,491.797211 198.325272,491.800293 197.997299,491.803375 
	C197.997299,481.185303 197.997299,470.567200 197.994415,459.481934 
z"/>
<path fill="#FDFDFD" opacity="1.000000" stroke="none" 
	d="
M394.258362,449.000671 
	C401.138672,460.638763 394.762299,478.556458 376.530487,477.330536 
	C370.454895,476.921997 364.328705,477.266022 357.760010,477.266022 
	C357.760010,470.897064 357.760010,464.964478 357.760010,459.031921 
	C357.760010,453.092438 357.760010,447.152954 357.760010,441.148621 
	C366.581818,441.148621 375.091339,440.380859 383.348572,441.490387 
	C387.161377,442.002747 390.481415,446.182251 394.258362,449.000671 
z"/>
<path fill="#1C1C1C" opacity="1.000000" stroke="none" 
	d="
M351.989014,474.000000 
	C351.989014,486.962463 351.989014,499.424896 351.989014,511.887360 
	C351.756927,511.886566 351.524872,511.885742 351.292786,511.884949 
	C351.292786,487.029907 351.292786,462.174866 351.292786,437.319794 
	C351.524872,437.314880 351.756927,437.309967 351.989014,437.305054 
	C351.989014,449.370056 351.989014,461.435028 351.989014,474.000000 
z"/>
<path fill="#1C1C1C" opacity="1.000000" stroke="none" 
	d="
M353.989197,513.250061 
	C354.098755,513.412598 354.045044,513.576599 353.991333,513.740601 
	C353.936218,513.577576 353.881104,513.414551 353.989197,513.250061 
z"/>
<path fill="#FBFBFB" opacity="1.000000" stroke="none" 
	d="
M417.712158,483.305908 
	C420.159332,469.038818 431.152863,461.070312 445.109863,463.050110 
	C457.108276,464.752075 465.413574,476.257690 464.032440,489.264374 
	C462.729034,501.539062 451.360962,510.747681 438.888458,509.632172 
	C425.842072,508.465271 416.921631,497.596893 417.712158,483.305908 
z"/>
<path fill="#000000" opacity="1.000000" stroke="none" 
	d="
M257.083282,459.004181 
	C267.018738,459.013794 267.018829,459.013794 267.018890,468.904205 
	C267.018982,481.494995 267.021088,494.085785 267.018005,506.676575 
	C267.016479,512.999390 267.012177,512.999512 260.467926,513.004700 
	C259.639587,513.005371 258.811249,513.003723 257.501526,512.531860 
	C257.041168,494.375122 257.062225,476.689667 257.083282,459.004181 
z"/>
<path fill="#242424" opacity="1.000000" stroke="none" 
	d="
M256.767273,459.283630 
	C257.062225,476.689667 257.041168,494.375122 257.048187,512.528687 
	C256.722626,511.785461 256.066254,510.575378 256.061218,509.362640 
	C255.995193,493.402832 256.016052,477.442627 256.041809,461.482574 
	C256.042816,460.842499 256.308746,460.202911 256.767273,459.283630 
z"/>
</svg>